<?xml version="1.0" encoding="iso-8859-1"?>
<!-- Generator: Adobe Illustrator 16.0.0, SVG Export Plug-In . SVG Version: 6.00 Build 0)  -->
<!DOCTYPE svg PUBLIC "-//W3C//DTD SVG 1.1//EN" "http://www.w3.org/Graphics/SVG/1.1/DTD/svg11.dtd">
<svg version="1.1" id="Capa_1" xmlns="http://www.w3.org/2000/svg" xmlns:xlink="http://www.w3.org/1999/xlink" x="0px" y="0px"
	 width="551.728px" height="551.729px" viewBox="0 0 551.728 551.729" style="enable-background:new 0 0 551.728 551.729;"
	 xml:space="preserve" fill="#fff">
<g>
	<path d="M551.565,515.464l-85.7-479.2c-1.2-8.6-9.8-15.3-18.4-15.3h-34.3c-8.6,0-14.1,6.7-12.899,15.3l14.699,82.6h-278.3
		l14.7-82.6c1.2-8.6-4.3-15.3-12.9-15.3h-34.3l0,0c-8.6,0-16.5,6.7-18.4,15.3l-85.6,479.2c-1.2,8.6,4.3,15.301,12.9,15.301h34.3
		c8.6,0,16.5-6.701,18.4-15.301l14.7-82.6h390.5l14.7,82.6c1.2,8.6,9.2,15.301,17.7,15.301h34.9
		C547.265,530.765,552.765,524.063,551.565,515.464z M129.264,161.764h293.801l16.5,93.6H112.764L129.264,161.764z M88.864,390.563
		l16.5-93.6h342.1l16.5,93.6H88.864z"/>
</g>
<g>
</g>
<g>
</g>
<g>
</g>
<g>
</g>
<g>
</g>
<g>
</g>
<g>
</g>
<g>
</g>
<g>
</g>
<g>
</g>
<g>
</g>
<g>
</g>
<g>
</g>
<g>
</g>
<g>
</g>
</svg>
