<?xml version="1.0" standalone="no"?>
<!DOCTYPE svg PUBLIC "-//W3C//DTD SVG 20010904//EN"
 "http://www.w3.org/TR/2001/REC-SVG-20010904/DTD/svg10.dtd">
<svg version="1.0" xmlns="http://www.w3.org/2000/svg"
 width="1280.000000pt" height="1165.000000pt" viewBox="0 0 1280.000000 1165.000000"
 preserveAspectRatio="xMidYMid meet">
<metadata>
Created by potrace 1.15, written by Peter Selinger 2001-2017
</metadata>
<g transform="translate(0.000000,1165.000000) scale(0.100000,-0.100000)"
fill="#000000" stroke="none">
<path d="M4825 11533 c-20 -65 -50 -162 -68 -215 l-31 -98 -341 0 -340 0 -38
-97 c-29 -77 -37 -112 -37 -160 l0 -63 325 0 c236 0 325 -3 325 -11 0 -7 -5
-29 -12 -50 l-11 -39 -361 -2 -361 -3 -42 -100 c-36 -87 -42 -110 -42 -177
l-1 -78 345 0 c190 0 345 -3 345 -7 0 -3 -8 -30 -17 -60 l-17 -53 -381 0 -382
0 -51 -130 c-46 -116 -52 -139 -52 -205 l0 -75 369 0 369 0 -22 -72 -23 -73
-134 -6 c-74 -4 -258 -7 -409 -8 l-275 -1 -63 -159 c-59 -148 -63 -163 -60
-227 l3 -69 393 -3 c215 -1 392 -6 392 -10 0 -4 -13 -47 -28 -97 l-28 -90
-436 -3 -436 -2 -76 -190 c-71 -178 -76 -195 -76 -265 l0 -75 425 0 c333 0
425 -3 425 -12 0 -7 -17 -67 -38 -133 l-38 -120 -470 -3 -471 -2 -12 -28 c-7
-15 -49 -116 -92 -225 -78 -195 -79 -198 -79 -287 l0 -90 460 0 c344 0 460 -3
460 -12 0 -15 -88 -299 -99 -318 -7 -13 -79 -16 -522 -20 l-513 -5 -113 -280
-112 -280 -1 -92 0 -93 510 0 c281 0 510 -3 510 -6 0 -6 -75 -247 -121 -391
l-21 -63 -568 0 -568 0 -146 -365 -146 -365 0 -130 0 -130 561 0 c477 0 560
-2 556 -14 -5 -12 -94 -295 -158 -503 l-20 -63 -637 0 -638 0 -192 -478 -192
-477 0 -147 0 -148 633 -2 634 -3 -92 -295 c-51 -162 -109 -348 -129 -412
l-37 -118 -731 -2 -731 -3 -263 -655 -263 -655 -1 -142 0 -143 746 0 c697 0
746 -1 740 -17 -4 -9 -34 -103 -67 -208 l-59 -190 2 -215 3 -215 299 0 299 0
108 370 c60 204 116 394 124 423 l16 52 4158 0 4157 0 124 -425 123 -425 299
0 298 0 0 228 0 228 -60 192 c-33 105 -60 193 -60 196 0 3 349 6 775 6 l775 0
0 143 -1 142 -263 655 -263 655 -764 5 -763 5 -127 405 c-70 223 -128 408
-128 413 -1 4 298 7 664 7 l665 0 0 148 0 147 -192 477 -192 478 -670 2 -670
3 -88 280 c-48 154 -88 283 -88 288 0 4 266 7 590 7 l590 0 0 130 0 130 -146
365 -146 365 -601 2 -601 3 -68 215 c-37 118 -67 221 -68 228 0 9 114 12 540
12 l540 0 0 93 -1 92 -112 280 -113 280 -547 3 -546 2 -51 159 c-27 87 -50
166 -50 175 0 15 43 16 495 16 l495 0 0 78 c0 80 -14 120 -187 540 -4 9 -115
12 -507 12 l-502 0 -37 119 c-20 65 -39 126 -43 135 -6 15 33 16 455 16 l461
0 0 75 c0 70 -5 87 -76 265 l-76 190 -467 0 -468 0 -30 98 -30 97 429 3 428 2
0 72 c0 66 -6 88 -63 230 l-62 158 -255 0 c-140 0 -339 3 -442 7 l-186 6 -17
61 c-10 33 -19 66 -22 73 -4 10 74 13 398 15 l404 3 3 59 c3 51 -4 75 -54 202
l-58 144 -412 0 -412 0 -20 60 -21 60 385 0 384 0 0 63 c-1 51 -9 83 -48 177
l-47 115 -392 3 -391 2 -15 45 -16 45 362 2 362 3 3 53 c3 44 -5 73 -40 163
l-43 109 -374 2 -374 3 -66 213 -66 212 -172 0 c-132 0 -173 -3 -173 -12 0 -7
-11 -91 -25 -185 -13 -95 -22 -186 -19 -203 l7 -30 -1128 0 c-1069 0 -1127 1
-1120 18 29 75 28 94 -6 252 l-34 155 -172 3 -172 2 -36 -117z m2765 -635 c0
-2 7 -24 15 -50 l14 -48 -1250 0 -1249 0 6 28 c4 15 11 37 15 50 l9 22 1220 0
c671 0 1220 -1 1220 -2z m152 -518 l16 -60 -1389 0 c-764 0 -1389 3 -1389 7 0
3 8 30 17 60 l17 53 1356 0 1356 0 16 -60z m153 -527 c9 -32 18 -65 21 -74 4
-14 -22 -17 -222 -22 -294 -9 -2328 -9 -2641 0 l-240 6 19 61 c10 34 20 67 23
74 3 9 315 12 1514 12 l1510 0 16 -57z m190 -650 c15 -49 28 -94 30 -100 4
-10 -350 -13 -1746 -13 -1397 0 -1750 3 -1747 13 3 6 16 51 29 100 l24 87
1692 0 1692 0 26 -87z m221 -754 c17 -59 34 -119 38 -133 l6 -26 -1980 0
c-1466 0 -1980 3 -1980 11 0 7 16 67 36 135 l37 124 1905 -2 1906 -3 32 -106z
m277 -948 c26 -87 47 -166 47 -175 0 -15 -194 -16 -2266 -16 -2153 0 -2265 1
-2260 18 3 9 19 67 36 127 17 61 38 131 46 158 l16 47 2167 0 2167 0 47 -159z
m281 -958 c2 -10 30 -106 61 -213 31 -107 58 -203 61 -212 5 -17 -124 -18
-2615 -18 -2009 0 -2621 3 -2621 12 0 9 107 381 125 436 4 9 511 12 2494 12
2363 0 2490 -1 2495 -17z m502 -1723 c46 -157 84 -286 84 -287 0 -2 -1386 -3
-3080 -3 -1694 0 -3080 3 -3080 7 0 4 37 134 82 290 l82 283 2914 -2 2915 -3
83 -285z m571 -1952 l120 -413 -3685 -3 c-2027 -1 -3687 0 -3689 1 -3 3 194
688 228 795 l11 32 3447 0 3447 0 121 -412z"/>
</g>
</svg>
